<svg data-v-423bf9ae="" xmlns="http://www.w3.org/2000/svg" viewBox="0 0 544 90" class="iconLeft"><!----><!----><!----><g data-v-423bf9ae="" id="7816d819-8471-4a77-810a-766085f44a76" fill="black" transform="matrix(5.576208059824095,0,0,5.576208059824095,70.13808323067067,-8.08550110000482)"><path d="M0.42 14.43L0.42 14.43L0.42 14.01L0.42 14.01Q0.42 13.80 0.63 13.80L0.63 13.80L0.72 13.80L0.72 13.80Q1.67 13.75 1.67 12.47L1.67 12.47L1.67 6.32L1.67 6.32Q1.67 4.98 0.66 4.98L0.66 4.98L0.64 4.98L0.64 4.98Q0.43 4.98 0.43 4.77L0.43 4.77L0.43 4.35L0.43 4.35Q0.43 4.14 0.64 4.14L0.64 4.14L5.78 4.14L5.78 4.14Q6.61 4.14 7.32 4.40L7.32 4.40L7.32 4.40Q8.03 4.66 8.51 5.09L8.51 5.09L8.51 5.09Q8.98 5.52 9.25 6.08L9.25 6.08L9.25 6.08Q9.52 6.64 9.52 7.24L9.52 7.24L9.52 7.24Q9.52 7.79 9.37 8.26L9.37 8.26L9.37 8.26Q9.23 8.72 8.89 9.13L8.89 9.13L8.89 9.13Q8.55 9.54 8.03 9.82L8.03 9.82L8.03 9.82Q7.51 10.10 6.73 10.26L6.73 10.26L6.73 10.26Q5.95 10.42 4.95 10.42L4.95 10.42L3.90 10.42L3.90 12.47L3.90 12.47Q3.90 13.75 4.85 13.80L4.85 13.80L4.94 13.80L4.94 13.80Q5.15 13.80 5.15 14.01L5.15 14.01L5.15 14.43L5.15 14.43Q5.15 14.64 4.94 14.64L4.94 14.64L0.63 14.64L0.63 14.64Q0.42 14.64 0.42 14.43ZM3.82 4.98L3.82 9.43L4.72 9.43L4.72 9.43Q6.13 9.43 6.77 8.91L6.77 8.91L6.77 8.91Q7.42 8.39 7.42 7.24L7.42 7.24L7.42 7.24Q7.42 6.25 6.81 5.62L6.81 5.62L6.81 5.62Q6.21 4.98 5.17 4.98L5.17 4.98L3.82 4.98ZM9.80 14.43L9.80 14.43L9.80 14.01L9.80 14.01Q9.80 13.80 10.00 13.80L10.00 13.80L10.04 13.80L10.04 13.80Q10.53 13.80 10.79 13.43L10.79 13.43L10.79 13.43Q11.05 13.06 11.05 12.47L11.05 12.47L11.05 10.71L11.05 10.71Q11.05 10.37 11.03 10.14L11.03 10.14L11.03 10.14Q11.01 9.92 10.93 9.67L10.93 9.67L10.93 9.67Q10.86 9.41 10.68 9.27L10.68 9.27L10.68 9.27Q10.50 9.13 10.23 9.10L10.23 9.10L10.23 9.10Q10.05 9.08 10.06 8.92L10.06 8.92L10.06 8.44L10.06 8.44Q10.06 8.29 10.26 8.26L10.26 8.26L10.26 8.26Q11.16 8.11 11.92 7.81L11.92 7.81L11.92 7.81Q12.67 7.50 13.04 7.24L13.04 7.24L13.04 7.24Q13.08 7.21 13.10 7.21L13.10 7.21L13.13 7.21L13.13 7.21Q13.15 7.21 13.15 7.23L13.15 7.23L12.82 9.11L12.82 9.11Q13.19 8.32 13.85 7.89L13.85 7.89L13.85 7.89Q14.51 7.46 15.28 7.46L15.28 7.46L15.28 7.46Q15.97 7.46 16.42 7.84L16.42 7.84L16.42 7.84Q16.86 8.22 16.86 8.91L16.86 8.91L16.86 8.91Q16.86 9.28 16.80 9.49L16.80 9.49L16.80 9.49Q16.73 9.70 16.50 9.80L16.50 9.80L15.18 10.34L15.18 10.34Q15.12 10.36 15.06 10.36L15.06 10.36L15.06 10.36Q14.93 10.36 14.93 10.23L14.93 10.23L14.93 10.23Q14.93 10.16 14.96 10.10L14.96 10.10L14.96 10.10Q15.09 9.79 15.09 9.41L15.09 9.41L15.09 9.41Q15.09 9.04 14.91 8.86L14.91 8.86L14.91 8.86Q14.72 8.68 14.42 8.68L14.42 8.68L14.42 8.68Q13.99 8.68 13.60 9.06L13.60 9.06L13.60 9.06Q13.21 9.44 13.02 9.89L13.02 9.89L13.02 12.47L13.02 12.47Q13.02 13.06 13.29 13.43L13.29 13.43L13.29 13.43Q13.56 13.80 14.05 13.80L14.05 13.80L14.08 13.80L14.08 13.80Q14.29 13.80 14.29 14.01L14.29 14.01L14.29 14.43L14.29 14.43Q14.29 14.64 14.08 14.64L14.08 14.64L10.00 14.64L10.00 14.64Q9.80 14.64 9.80 14.43ZM17.21 11.07L17.21 11.07L17.21 11.07Q17.21 10.01 17.77 9.11L17.77 9.11L17.77 9.11Q18.33 8.20 19.30 7.77L19.30 7.77L19.30 7.77Q19.97 7.47 20.72 7.47L20.72 7.47L20.72 7.47Q21.78 7.47 22.70 8.07L22.70 8.07L22.70 8.07Q23.62 8.66 24.08 9.69L24.08 9.69L24.08 9.69Q24.40 10.41 24.40 11.22L24.40 11.22L24.40 11.22Q24.40 12.28 23.84 13.17L23.84 13.17L23.84 13.17Q23.28 14.07 22.31 14.51L22.31 14.51L22.31 14.51Q21.62 14.81 20.88 14.81L20.88 14.81L20.88 14.81Q19.82 14.81 18.90 14.22L18.90 14.22L18.90 14.22Q17.99 13.62 17.53 12.60L17.53 12.60L17.53 12.60Q17.21 11.87 17.21 11.07ZM18.88 10.19L18.88 10.19L18.88 10.19Q18.88 10.96 19.27 11.83L19.27 11.83L19.27 11.83Q19.63 12.63 20.17 13.16L20.17 13.16L20.17 13.16Q20.71 13.69 21.32 13.69L21.32 13.69L21.32 13.69Q21.59 13.69 21.88 13.57L21.88 13.57L21.88 13.57Q22.73 13.20 22.73 12.09L22.73 12.09L22.73 12.09Q22.73 11.33 22.34 10.46L22.34 10.46L22.34 10.46Q21.98 9.65 21.43 9.12L21.43 9.12L21.43 9.12Q20.89 8.59 20.28 8.59L20.28 8.59L20.28 8.59Q20.01 8.59 19.72 8.72L19.72 8.72L19.72 8.72Q18.88 9.08 18.88 10.19ZM24.90 14.43L24.90 14.43L24.90 14.01L24.90 14.01Q24.90 13.80 25.10 13.80L25.10 13.80L25.14 13.80L25.14 13.80Q25.63 13.80 25.89 13.43L25.89 13.43L25.89 13.43Q26.15 13.06 26.15 12.47L26.15 12.47L26.15 10.71L26.15 10.71Q26.15 10.37 26.12 10.14L26.12 10.14L26.12 10.14Q26.10 9.92 26.02 9.67L26.02 9.67L26.02 9.67Q25.95 9.41 25.77 9.27L25.77 9.27L25.77 9.27Q25.59 9.13 25.32 9.10L25.32 9.10L25.32 9.10Q25.14 9.08 25.16 8.92L25.16 8.92L25.16 8.44L25.16 8.44Q25.16 8.29 25.36 8.26L25.36 8.26L25.36 8.26Q26.26 8.11 27.01 7.81L27.01 7.81L27.01 7.81Q27.77 7.51 28.13 7.24L28.13 7.24L28.13 7.24Q28.18 7.21 28.19 7.21L28.19 7.21L28.23 7.21L28.23 7.21Q28.24 7.21 28.24 7.23L28.24 7.23L27.99 9.06L27.99 9.06Q29.00 7.46 30.41 7.46L30.41 7.46L30.41 7.46Q32.22 7.46 32.64 8.83L32.64 8.83L32.64 8.83Q33.69 7.46 35.21 7.46L35.21 7.46L35.21 7.46Q35.79 7.46 36.23 7.62L36.23 7.62L36.23 7.62Q36.66 7.77 36.92 8.02L36.92 8.02L36.92 8.02Q37.17 8.27 37.33 8.64L37.33 8.64L37.33 8.64Q37.48 9.00 37.54 9.37L37.54 9.37L37.54 9.37Q37.59 9.73 37.59 10.17L37.59 10.17L37.59 12.47L37.59 12.47Q37.59 13.06 37.86 13.43L37.86 13.43L37.86 13.43Q38.12 13.80 38.62 13.80L38.62 13.80L38.76 13.80L38.76 13.80Q38.97 13.80 38.97 14.01L38.97 14.01L38.97 14.43L38.97 14.43Q38.97 14.64 38.76 14.64L38.76 14.64L34.82 14.64L34.82 14.64Q34.61 14.64 34.61 14.43L34.61 14.43L34.61 14.01L34.61 14.01Q34.61 13.80 34.82 13.80L34.82 13.80L34.89 13.80L34.89 13.80Q35.31 13.80 35.47 13.49L35.47 13.49L35.47 13.49Q35.62 13.18 35.62 12.47L35.62 12.47L35.62 10.36L35.62 10.36Q35.62 10.32 35.62 10.23L35.62 10.23L35.62 10.23Q35.62 9.99 35.62 9.86L35.62 9.86L35.62 9.86Q35.62 9.73 35.59 9.51L35.59 9.51L35.59 9.51Q35.57 9.30 35.50 9.18L35.50 9.18L35.50 9.18Q35.44 9.06 35.33 8.94L35.33 8.94L35.33 8.94Q35.23 8.81 35.04 8.75L35.04 8.75L35.04 8.75Q34.86 8.70 34.62 8.70L34.62 8.70L34.62 8.70Q34.04 8.70 33.58 9.05L33.58 9.05L33.58 9.05Q33.11 9.41 32.80 10.02L32.80 10.02L32.80 12.47L32.80 12.47Q32.80 13.21 33.02 13.50L33.02 13.50L33.02 13.50Q33.25 13.80 33.69 13.80L33.69 13.80L33.80 13.80L33.80 13.80Q34.00 13.80 34.00 14.01L34.00 14.01L34.00 14.43L34.00 14.43Q34.00 14.64 33.80 14.64L33.80 14.64L30.00 14.64L30.00 14.64Q29.78 14.64 29.78 14.43L29.78 14.43L29.78 14.01L29.78 14.01Q29.78 13.80 30.00 13.80L30.00 13.80L30.09 13.80L30.09 13.80Q30.43 13.80 30.63 13.49L30.63 13.49L30.63 13.49Q30.83 13.19 30.83 12.52L30.83 12.52L30.83 12.52Q30.83 12.50 30.83 12.47L30.83 12.47L30.83 10.36L30.83 10.36Q30.83 10.32 30.83 10.23L30.83 10.23L30.83 10.23Q30.83 9.95 30.83 9.81L30.83 9.81L30.83 9.81Q30.82 9.68 30.80 9.46L30.80 9.46L30.80 9.46Q30.77 9.24 30.71 9.14L30.71 9.14L30.71 9.14Q30.65 9.03 30.54 8.91L30.54 8.91L30.54 8.91Q30.43 8.79 30.25 8.74L30.25 8.74L30.25 8.74Q30.06 8.70 29.82 8.70L29.82 8.70L29.82 8.70Q29.31 8.70 28.81 9.06L28.81 9.06L28.81 9.06Q28.30 9.43 28.12 9.89L28.12 9.89L28.12 12.47L28.12 12.47Q28.12 13.05 28.36 13.43L28.36 13.43L28.36 13.43Q28.60 13.80 29.00 13.80L29.00 13.80L29.05 13.80L29.05 13.80Q29.25 13.80 29.25 14.01L29.25 14.01L29.25 14.43L29.25 14.43Q29.25 14.64 29.05 14.64L29.05 14.64L25.10 14.64L25.10 14.64Q24.90 14.64 24.90 14.43ZM38.99 11.07L38.99 11.07L38.99 11.07Q38.99 10.01 39.55 9.11L39.55 9.11L39.55 9.11Q40.11 8.20 41.08 7.77L41.08 7.77L41.08 7.77Q41.75 7.47 42.50 7.47L42.50 7.47L42.50 7.47Q43.56 7.47 44.48 8.07L44.48 8.07L44.48 8.07Q45.40 8.66 45.86 9.69L45.86 9.69L45.86 9.69Q46.18 10.41 46.18 11.22L46.18 11.22L46.18 11.22Q46.18 12.28 45.62 13.17L45.62 13.17L45.62 13.17Q45.06 14.07 44.08 14.51L44.08 14.51L44.08 14.51Q43.39 14.81 42.66 14.81L42.66 14.81L42.66 14.81Q41.60 14.81 40.68 14.22L40.68 14.22L40.68 14.22Q39.76 13.62 39.31 12.60L39.31 12.60L39.31 12.60Q38.99 11.87 38.99 11.07ZM40.66 10.19L40.66 10.19L40.66 10.19Q40.66 10.96 41.05 11.83L41.05 11.83L41.05 11.83Q41.41 12.63 41.95 13.16L41.95 13.16L41.95 13.16Q42.49 13.69 43.10 13.69L43.10 13.69L43.10 13.69Q43.37 13.69 43.66 13.57L43.66 13.57L43.66 13.57Q44.51 13.20 44.51 12.09L44.51 12.09L44.51 12.09Q44.51 11.33 44.12 10.46L44.12 10.46L44.12 10.46Q43.76 9.65 43.21 9.12L43.21 9.12L43.21 9.12Q42.67 8.59 42.06 8.59L42.06 8.59L42.06 8.59Q41.79 8.59 41.50 8.72L41.50 8.72L41.50 8.72Q40.66 9.08 40.66 10.19ZM46.60 8.27L46.60 8.27L46.60 7.85L46.60 7.85Q46.60 7.64 46.81 7.64L46.81 7.64L47.82 7.64L47.82 6.71L47.82 6.71Q47.82 6.53 47.95 6.45L47.95 6.45L47.95 6.45Q48.92 5.93 49.67 5.30L49.67 5.30L49.67 5.30Q49.70 5.26 49.73 5.26L49.73 5.26L49.75 5.26L49.75 5.26Q49.79 5.26 49.79 5.28L49.79 5.28L49.79 7.64L51.66 7.64L51.66 7.64Q51.87 7.64 51.87 7.85L51.87 7.85L51.87 8.46L51.87 8.46Q51.87 8.67 51.66 8.67L51.66 8.67L49.79 8.67L49.79 12.67L49.79 12.67Q49.79 13.62 50.37 13.62L50.37 13.62L50.37 13.62Q50.73 13.62 51.37 13.22L51.37 13.22L51.39 13.21L51.39 13.21Q51.45 13.17 51.51 13.17L51.51 13.17L51.51 13.17Q51.60 13.17 51.67 13.28L51.67 13.28L51.90 13.63L51.90 13.63Q51.94 13.69 51.94 13.75L51.94 13.75L51.94 13.75Q51.94 13.84 51.83 13.92L51.83 13.92L51.41 14.18L51.41 14.18Q50.38 14.82 49.45 14.82L49.45 14.82L49.45 14.82Q49.11 14.82 48.83 14.71L48.83 14.71L48.83 14.71Q48.55 14.61 48.32 14.37L48.32 14.37L48.32 14.37Q48.08 14.13 47.95 13.70L47.95 13.70L47.95 13.70Q47.82 13.27 47.82 12.67L47.82 12.67L47.82 10.08L47.82 10.08Q47.82 9.86 47.82 9.74L47.82 9.74L47.82 9.74Q47.82 9.63 47.80 9.43L47.80 9.43L47.80 9.43Q47.78 9.24 47.75 9.13L47.75 9.13L47.75 9.13Q47.71 9.02 47.64 8.88L47.64 8.88L47.64 8.88Q47.56 8.74 47.46 8.66L47.46 8.66L47.46 8.66Q47.35 8.59 47.19 8.54L47.19 8.54L47.19 8.54Q47.02 8.48 46.81 8.48L46.81 8.48L46.81 8.48Q46.60 8.48 46.60 8.27ZM52.39 11.08L52.39 11.08L52.39 11.08Q52.39 10.33 52.58 9.71L52.58 9.71L52.58 9.71Q52.77 9.10 53.09 8.69L53.09 8.69L53.09 8.69Q53.41 8.29 53.84 8.01L53.84 8.01L53.84 8.01Q54.28 7.73 54.75 7.61L54.75 7.61L54.75 7.61Q55.21 7.49 55.73 7.49L55.73 7.49L55.73 7.49Q56.26 7.49 56.73 7.67L56.73 7.67L56.73 7.67Q57.21 7.85 57.54 8.13L57.54 8.13L57.54 8.13Q57.88 8.42 58.12 8.78L58.12 8.78L58.12 8.78Q58.37 9.14 58.48 9.50L58.48 9.50L58.48 9.50Q58.60 9.86 58.60 10.19L58.60 10.19L58.60 10.19Q58.60 10.31 58.49 10.36L58.49 10.36L54.43 12.14L54.43 12.14Q54.69 12.79 55.23 13.22L55.23 13.22L55.23 13.22Q55.77 13.64 56.53 13.64L56.53 13.64L56.53 13.64Q57.00 13.64 57.48 13.38L57.48 13.38L57.48 13.38Q57.96 13.13 58.31 12.61L58.31 12.61L58.31 12.61Q58.35 12.55 58.43 12.55L58.43 12.55L58.43 12.55Q58.52 12.55 58.99 12.82L58.99 12.82L58.99 12.82Q59.04 12.86 59.04 12.93L59.04 12.93L59.04 12.93Q59.04 13.02 58.95 13.18L58.95 13.18L58.95 13.18Q58.07 14.81 56.15 14.81L56.15 14.81L56.15 14.81Q55.02 14.81 54.15 14.30L54.15 14.30L54.15 14.30Q53.29 13.79 52.84 12.94L52.84 12.94L52.84 12.94Q52.39 12.10 52.39 11.08ZM54.47 9.05L54.47 9.05L54.47 9.05Q54.13 9.50 54.13 10.20L54.13 10.20L54.13 10.20Q54.13 10.90 54.26 11.27L54.26 11.27L56.51 10.13L56.51 10.13Q56.51 9.47 56.19 9.03L56.19 9.03L56.19 9.03Q55.87 8.59 55.38 8.59L55.38 8.59L55.38 8.59Q54.82 8.59 54.47 9.05ZM60.17 13.55L60.17 13.55L60.17 13.55Q60.17 13.28 60.44 13.01L60.44 13.01L60.98 12.46L60.98 12.46Q61.24 12.20 61.52 12.20L61.52 12.20L61.52 12.20Q61.80 12.20 62.07 12.46L62.07 12.46L62.62 13.01L62.62 13.01Q62.88 13.28 62.88 13.55L62.88 13.55L62.88 13.55Q62.88 13.83 62.62 14.10L62.62 14.10L62.07 14.64L62.07 14.64Q61.81 14.90 61.52 14.90L61.52 14.90L61.52 14.90Q61.24 14.90 60.98 14.64L60.98 14.64L60.44 14.10L60.44 14.10Q60.17 13.83 60.17 13.55ZM64.20 14.43L64.20 14.43L64.20 14.01L64.20 14.01Q64.20 13.80 64.41 13.80L64.41 13.80L64.44 13.80L64.44 13.80Q64.93 13.80 65.19 13.43L65.19 13.43L65.19 13.43Q65.45 13.06 65.45 12.47L65.45 12.47L65.45 10.71L65.45 10.71Q65.45 10.37 65.43 10.14L65.43 10.14L65.43 10.14Q65.41 9.92 65.33 9.67L65.33 9.67L65.33 9.67Q65.26 9.41 65.08 9.27L65.08 9.27L65.08 9.27Q64.90 9.13 64.63 9.10L64.63 9.10L64.63 9.10Q64.45 9.08 64.46 8.92L64.46 8.92L64.46 8.44L64.46 8.44Q64.46 8.29 64.67 8.26L64.67 8.26L64.67 8.26Q65.56 8.11 66.32 7.81L66.32 7.81L66.32 7.81Q67.07 7.51 67.44 7.24L67.44 7.24L67.44 7.24Q67.49 7.21 67.50 7.21L67.50 7.21L67.53 7.21L67.53 7.21Q67.55 7.21 67.55 7.23L67.55 7.23L67.30 9.06L67.30 9.06Q68.30 7.46 69.72 7.46L69.72 7.46L69.72 7.46Q71.52 7.46 71.95 8.83L71.95 8.83L71.95 8.83Q73.00 7.46 74.52 7.46L74.52 7.46L74.52 7.46Q75.10 7.46 75.53 7.62L75.53 7.62L75.53 7.62Q75.97 7.77 76.22 8.02L76.22 8.02L76.22 8.02Q76.48 8.27 76.63 8.64L76.63 8.64L76.63 8.64Q76.79 9.00 76.84 9.37L76.84 9.37L76.84 9.37Q76.90 9.73 76.90 10.17L76.90 10.17L76.90 12.47L76.90 12.47Q76.90 13.06 77.16 13.43L77.16 13.43L77.16 13.43Q77.43 13.80 77.93 13.80L77.93 13.80L78.07 13.80L78.07 13.80Q78.28 13.80 78.28 14.01L78.28 14.01L78.28 14.43L78.28 14.43Q78.28 14.64 78.07 14.64L78.07 14.64L74.13 14.64L74.13 14.64Q73.92 14.64 73.92 14.43L73.92 14.43L73.92 14.01L73.92 14.01Q73.92 13.80 74.13 13.80L74.13 13.80L74.20 13.80L74.20 13.80Q74.62 13.80 74.77 13.49L74.77 13.49L74.77 13.49Q74.93 13.18 74.93 12.47L74.93 12.47L74.93 10.36L74.93 10.36Q74.93 10.32 74.93 10.23L74.93 10.23L74.93 10.23Q74.93 9.99 74.93 9.86L74.93 9.86L74.93 9.86Q74.92 9.73 74.90 9.51L74.90 9.51L74.90 9.51Q74.87 9.30 74.81 9.18L74.81 9.18L74.81 9.18Q74.74 9.06 74.64 8.94L74.64 8.94L74.64 8.94Q74.53 8.81 74.35 8.75L74.35 8.75L74.35 8.75Q74.17 8.70 73.92 8.70L73.92 8.70L73.92 8.70Q73.35 8.70 72.88 9.05L72.88 9.05L72.88 9.05Q72.42 9.41 72.11 10.02L72.11 10.02L72.11 12.47L72.11 12.47Q72.11 13.21 72.33 13.50L72.33 13.50L72.33 13.50Q72.56 13.80 72.99 13.80L72.99 13.80L73.10 13.80L73.10 13.80Q73.31 13.80 73.31 14.01L73.31 14.01L73.31 14.43L73.31 14.43Q73.31 14.64 73.10 14.64L73.10 14.64L69.30 14.64L69.30 14.64Q69.09 14.64 69.09 14.43L69.09 14.43L69.09 14.01L69.09 14.01Q69.09 13.80 69.30 13.80L69.30 13.80L69.40 13.80L69.40 13.80Q69.73 13.80 69.94 13.49L69.94 13.49L69.94 13.49Q70.14 13.19 70.14 12.52L70.14 12.52L70.14 12.52Q70.14 12.50 70.14 12.47L70.14 12.47L70.14 10.36L70.14 10.36Q70.14 10.32 70.14 10.23L70.14 10.23L70.14 10.23Q70.14 9.95 70.13 9.81L70.13 9.81L70.13 9.81Q70.13 9.68 70.10 9.46L70.10 9.46L70.10 9.46Q70.08 9.24 70.01 9.14L70.01 9.14L70.01 9.14Q69.95 9.03 69.84 8.91L69.84 8.91L69.84 8.91Q69.73 8.79 69.55 8.74L69.55 8.74L69.55 8.74Q69.37 8.70 69.13 8.70L69.13 8.70L69.13 8.70Q68.62 8.70 68.11 9.06L68.11 9.06L68.11 9.06Q67.61 9.43 67.42 9.89L67.42 9.89L67.42 12.47L67.42 12.47Q67.42 13.05 67.67 13.43L67.67 13.43L67.67 13.43Q67.91 13.80 68.31 13.80L68.31 13.80L68.35 13.80L68.35 13.80Q68.56 13.80 68.56 14.01L68.56 14.01L68.56 14.43L68.56 14.43Q68.56 14.64 68.35 14.64L68.35 14.64L64.41 14.64L64.41 14.64Q64.20 14.64 64.20 14.43ZM78.29 11.08L78.29 11.08L78.29 11.08Q78.29 10.33 78.48 9.71L78.48 9.71L78.48 9.71Q78.67 9.10 78.99 8.69L78.99 8.69L78.99 8.69Q79.31 8.29 79.74 8.01L79.74 8.01L79.74 8.01Q80.18 7.73 80.65 7.61L80.65 7.61L80.65 7.61Q81.12 7.49 81.63 7.49L81.63 7.49L81.63 7.49Q82.16 7.49 82.64 7.67L82.64 7.67L82.64 7.67Q83.11 7.85 83.45 8.13L83.45 8.13L83.45 8.13Q83.78 8.42 84.02 8.78L84.02 8.78L84.02 8.78Q84.27 9.14 84.39 9.50L84.39 9.50L84.39 9.50Q84.51 9.86 84.51 10.19L84.51 10.19L84.51 10.19Q84.51 10.31 84.39 10.36L84.39 10.36L80.33 12.14L80.33 12.14Q80.60 12.79 81.13 13.22L81.13 13.22L81.13 13.22Q81.67 13.64 82.43 13.64L82.43 13.64L82.43 13.64Q82.90 13.64 83.38 13.38L83.38 13.38L83.38 13.38Q83.86 13.13 84.21 12.61L84.21 12.61L84.21 12.61Q84.25 12.55 84.33 12.55L84.33 12.55L84.33 12.55Q84.42 12.55 84.89 12.82L84.89 12.82L84.89 12.82Q84.94 12.86 84.94 12.93L84.94 12.93L84.94 12.93Q84.94 13.02 84.85 13.18L84.85 13.18L84.85 13.18Q83.97 14.81 82.05 14.81L82.05 14.81L82.05 14.81Q80.92 14.81 80.06 14.30L80.06 14.30L80.06 14.30Q79.19 13.79 78.74 12.94L78.74 12.94L78.74 12.94Q78.29 12.10 78.29 11.08ZM80.37 9.05L80.37 9.05L80.37 9.05Q80.03 9.50 80.03 10.20L80.03 10.20L80.03 10.20Q80.03 10.90 80.16 11.27L80.16 11.27L82.41 10.13L82.41 10.13Q82.41 9.47 82.09 9.03L82.09 9.03L82.09 9.03Q81.77 8.59 81.29 8.59L81.29 8.59L81.29 8.59Q80.72 8.59 80.37 9.05Z"></path></g><!----><g data-v-423bf9ae="" id="5264080e-5704-448b-9c30-767b68a112a3" transform="matrix(1.875,0,0,1.875,-32.95558750629425,-15)" stroke="none" fill="black"><path d="M32 29c-2.8 0-5-2.2-5-5s2.2-5 5-5 5 2.2 5 5-2.2 5-5 5zm0-8c-1.7 0-3 1.3-3 3s1.3 3 3 3 3-1.3 3-3-1.3-3-3-3z"></path><path d="M45.8 47.3l-5.6-6.5c.3-.8.5-1.5.7-2.3.1-.1.1-.3.1-.5.6-2.3 1-4.7 1-7 0-10-3.9-18-9-18.9V9c0-.6-.4-1-1-1s-1 .4-1 1v3.1c-5.1.9-9 8.9-9 18.9 0 3.3.8 6.8 1.8 9.8l-5.6 6.5c-.3.3-.3.7-.1 1.1.2.4.5.6.9.6h8v1c0 1.7 1 2 1.5 2h6.9c.6 0 1.5-.3 1.5-2v-1h8c.4 0 .7-.2.9-.6s.2-.8 0-1.1zM32 14c4.3 0 8 7.8 8 17 0 2-.3 4-.8 6H24.8c-.5-2-.8-4-.8-6 0-9.2 3.7-17 8-17zm-7.4 29c.6 1.7 1.3 3.1 1.7 4h-5.2l3.5-4zM35 50h-6v-2-.1-.1c0-.1 0-.2-.1-.2l-.1-.1c0-.1-.1-.2-.1-.3-.1-.1-.1-.3-.2-.5-.7-1.4-2-4.3-3-7.6h13.2c-1.4 4.7-3.5 8.5-3.5 8.5 0 .1-.1.2-.1.2V50zm2.6-3c.5-1 1.1-2.4 1.8-4l3.4 4h-5.2zM29 56c-.6 0-1-.4-1-1v-1c0-.6.4-1 1-1s1 .4 1 1v1c0 .6-.4 1-1 1zM35 56c-.6 0-1-.4-1-1v-1c0-.6.4-1 1-1s1 .4 1 1v1c0 .6-.4 1-1 1zM32 56c-.6 0-1-.4-1-1v-1c0-.6.4-1 1-1s1 .4 1 1v1c0 .6-.4 1-1 1z"></path></g><!----></svg>